<svg xmlns="http://www.w3.org/2000/svg" width="128" height="128" viewBox="0 0 128 128">
  <!-- Fondo circular -->
  <circle cx="64" cy="64" r="60" fill="#251840" stroke="#3A1D4E" stroke-width="4"/>
  
  <!-- Patrón de flor de la vida simplificado con los colores de la paleta -->
  <!-- Círculos exteriores en azul -->
  <circle cx="64" cy="24" r="24" fill="#0F9BCE" opacity="0.9"/>
  <circle cx="94" cy="44" r="24" fill="#0F9BCE" opacity="0.9"/>
  <circle cx="94" cy="84" r="24" fill="#0F9BCE" opacity="0.9"/>
  <circle cx="64" cy="104" r="24" fill="#0F9BCE" opacity="0.9"/>
  <circle cx="34" cy="84" r="24" fill="#0F9BCE" opacity="0.9"/>
  <circle cx="34" cy="44" r="24" fill="#0F9BCE" opacity="0.9"/>
  
  <!-- Círculos interiores en violeta -->
  <circle cx="64" cy="44" r="20" fill="#3A1D4E" opacity="0.9"/>
  <circle cx="79" cy="64" r="20" fill="#3A1D4E" opacity="0.9"/>
  <circle cx="64" cy="84" r="20" fill="#3A1D4E" opacity="0.9"/>
  <circle cx="49" cy="64" r="20" fill="#3A1D4E" opacity="0.9"/>
  
  <!-- Centro en verde -->
  <circle cx="64" cy="64" r="12" fill="#ACC30D" opacity="0.9"/>
  
  <!-- Pétalos en verde -->
  <path d="M64 52 L68 64 L64 76 L60 64 Z" fill="#ACC30D" opacity="0.9"/>
  <path d="M76 64 L64 68 L52 64 L64 60 Z" fill="#ACC30D" opacity="0.9"/>
  <path d="M70 58 L70 70 L58 70 L58 58 Z" fill="#ACC30D" opacity="0.9" transform="rotate(45, 64, 64)"/>
  <style>
        @media (prefers-color-scheme: dark) {
            /* Mantener los colores en modo oscuro */
        }
    </style>
</svg>
